<mxfile host="65bd71144e">
    <diagram id="3txIek-i1aI6SL7DAVFe" name="Page-1">
        <mxGraphModel dx="439" dy="490" grid="1" gridSize="10" guides="1" tooltips="1" connect="1" arrows="1" fold="1" page="1" pageScale="1" pageWidth="827" pageHeight="1169" math="0" shadow="0">
            <root>
                <mxCell id="0"/>
                <mxCell id="1" parent="0"/>
                <mxCell id="2" value="事件触发" style="swimlane;" vertex="1" parent="1">
                    <mxGeometry x="130" y="150" width="200" height="200" as="geometry"/>
                </mxCell>
            </root>
        </mxGraphModel>
    </diagram>
</mxfile>